<?xml version="1.0" encoding="UTF-8"?><svg id="Layer_2" xmlns="http://www.w3.org/2000/svg" viewBox="0 0 215.36 91.41"><g id="Layer_1-2"><path d="m60.5,60.81h-16.23l-20.58-28.43c-1.52.06-2.77.09-3.72.09-.39,0-.81,0-1.25-.02-.45-.01-.91-.04-1.39-.07v17.67c0,3.83.42,6.2,1.26,7.13,1.14,1.32,2.84,1.97,5.11,1.97h2.38v1.66H0v-1.66h2.29c2.57,0,4.41-.84,5.52-2.51.63-.93.94-3.12.94-6.59V10.76c0-3.83-.42-6.2-1.26-7.13-1.17-1.32-2.9-1.97-5.2-1.97H0V0h22.15c6.46,0,11.22.47,14.28,1.41,3.06.94,5.67,2.68,7.8,5.2,2.14,2.53,3.21,5.54,3.21,9.04,0,3.74-1.22,6.98-3.65,9.73-2.44,2.75-6.21,4.69-11.32,5.83l12.56,17.44c2.87,4.01,5.34,6.67,7.4,7.98,2.06,1.32,4.75,2.15,8.07,2.51v1.66ZM17.31,29.55c.57,0,1.06,0,1.48.02s.76.02,1.03.02c5.8,0,10.17-1.26,13.12-3.77,2.94-2.51,4.42-5.71,4.42-9.6s-1.19-6.88-3.57-9.26-5.52-3.57-9.44-3.57c-1.73,0-4.08.29-7.04.85v25.29Z"/><path d="m97.25,3.32v24.04h13.36c3.47,0,5.79-.52,6.95-1.57,1.55-1.38,2.42-3.8,2.6-7.26h1.66v21.17h-1.66c-.42-2.96-.84-4.86-1.25-5.7-.54-1.05-1.42-1.87-2.65-2.47-1.23-.6-3.11-.9-5.65-.9h-13.36v20.05c0,2.69.12,4.33.36,4.91.24.58.66,1.05,1.26,1.39.6.34,1.73.52,3.41.52h10.31c3.44,0,5.93-.24,7.49-.72,1.55-.48,3.05-1.42,4.48-2.83,1.85-1.85,3.75-4.65,5.7-8.39h1.79l-5.25,15.25h-46.86v-1.66h2.15c1.43,0,2.79-.34,4.08-1.03.96-.48,1.61-1.2,1.95-2.15.34-.96.52-2.91.52-5.87V10.58c0-3.86-.39-6.23-1.17-7.13-1.08-1.2-2.87-1.79-5.38-1.79h-2.15V0h46.86l.67,13.32h-1.75c-.63-3.2-1.32-5.4-2.09-6.59-.76-1.2-1.89-2.11-3.39-2.74-1.2-.45-3.3-.67-6.32-.67h-16.68Z"/><path d="m154.1,60.81v-1.66h2.29c2.57,0,4.4-.82,5.47-2.47.66-.99.99-3.2.99-6.64V10.76c0-3.8-.42-6.17-1.26-7.13-1.17-1.32-2.9-1.97-5.2-1.97h-2.29V0h24.75c9.09,0,16,1.03,20.74,3.09,4.74,2.06,8.55,5.5,11.44,10.31,2.88,4.81,4.33,10.38,4.33,16.68,0,8.46-2.57,15.53-7.71,21.21-5.77,6.34-14.56,9.51-26.37,9.51h-27.18Zm17.36-4.39c3.8.84,6.98,1.25,9.55,1.25,6.94,0,12.69-2.44,17.27-7.31,4.57-4.87,6.86-11.48,6.86-19.82s-2.29-15.02-6.86-19.87c-4.57-4.84-10.45-7.27-17.62-7.27-2.69,0-5.76.43-9.19,1.3v51.71Z"/><path d="m4.9,76.58h5.15c4.66,0,7.88,3.2,7.88,7.37v.04c0,4.17-3.22,7.41-7.88,7.41h-5.15v-14.83Zm1.67,1.55v11.73h3.47c3.75,0,6.14-2.54,6.14-5.82v-.04c0-3.28-2.39-5.87-6.14-5.87h-3.47Z"/><path d="m50.86,76.47h1.57l6.76,14.93h-1.8l-1.74-3.92h-8.07l-1.76,3.92h-1.72l6.76-14.93Zm4.13,9.49l-3.37-7.54-3.39,7.54h6.76Z"/><path d="m87,76.58h1.67v6.59h8.56v-6.59h1.67v14.83h-1.67v-6.67h-8.56v6.67h-1.67v-14.83Z"/><path d="m127.98,76.58h1.67v13.28h8.34v1.55h-10.02v-14.83Z"/><path d="m166.13,76.58h1.67v14.83h-1.67v-14.83Z"/><path d="m202.52,76.47h1.57l6.76,14.93h-1.8l-1.74-3.92h-8.07l-1.76,3.92h-1.71l6.76-14.93Zm4.13,9.49l-3.37-7.54-3.39,7.54h6.76Z"/></g></svg>